_________________________  Visit us at _________________________
  
http://p2pdl.com  ____________________________  http://p2pdl.com


Oz the Great and Powerful 2013 BRRip 480p x264 - VYTO


Genre: Adventure | Family | Fantasy
Plot: A small-time magician is swept away to an enchanted land and is forced into a power struggle
between three witches.   
Director: Sam Raimi
Stars: James Franco, Mila Kunis, Rachel Weisz.
Rated: PG for sequences of action and scary images, and brief mild language.


Info: 
http://www.imdb.com/title/tt1623205/

Trailer:


Format                         : MPEG-4
File size                      : 452 MiB
Duration                       : 2h 10mn
Overall bit rate               : 484 Kbps
Source                         : 720p.BluRay.x264-SPARKS

Video
Format                         : AVC
Bit rate                       : 441 Kbps
Width                          : 720 pixels
Height                         : 304 pixels
Display aspect ratio           : 2.35:1
Frame rate mode                : Constant
Frame rate                     : 23.976 fps
Stream size                    : 411 MiB (91%)
Writing library                : x264 core 130 r2273

Audio
Format                         : AAC
Bit rate mode                  : Variable
Bit rate                       : 39.9 Kbps
Channel(s)                     : 2 channels
Channel positions              : Front: L R
Sampling rate                  : 48.0 KHz
Stream size                    : 37.3 MiB (8%)
Language                       : English

Subtitle                       : Yes(English)
 
http://www.ultraimg.com/images/UCg7p.png 
http://www.ultraimg.com/images/i5W.png 
http://www.ultraimg.com/images/5wsSc.png 
http://www.ultraimg.com/images/10W8.png 
http://www.ultraimg.com/images/1MC52.png 
http://www.ultraimg.com/images/znDlV.png


----------------------------------------------------------------------------------------------------


Encoded using revolutionary 10bit encoding, which enables us to provide you more crispier 
and sharper images at small sizes, just make sure you follow our instructions without a fault.
Recommend to you to use latest version of VLC player. Install K-Lite Codec Pack or shark007 codecs
in case of any kind of problem in playback (For non-VLC Media Player users). Alternatively, install
Core AVC codecs, the fastest decoder that there is coupled with Community Center Codec Pack and play
on Windows Media Player Classic. Check sample to be sure.
Enjoy!

Encoder Notes:Looking For Early Access To Anything You Can Provide DVDScr, R5, DVDR, BluRay, Direct
Audio, Music Releases and Seedboxes. We require dedicated servers, so as to do more 
and fast releases of movies.
If You Got anything to offer please contact us at "contact@p2pdl.com".

Face book Fan Page:   
http://www.fb.me/p2pdl